# Blender v2.93.1 OBJ File: 'player3.blend'
# www.blender.org
mtllib player3.mtl
o Cube.001
v -0.211818 0.094977 -0.230719
v -0.211818 0.000005 -0.230719
v -0.788183 0.094977 -0.230719
v -0.788183 0.000005 -0.230719
v -0.211818 0.094977 -0.807084
v -0.211818 0.000005 -0.807084
v -0.788183 0.094977 -0.807084
v -0.788183 0.000005 -0.807084
v -0.211818 0.000005 -0.422841
v -0.211818 0.000005 -0.614962
v -0.788183 0.094977 -0.422841
v -0.788183 0.094977 -0.614962
v -0.788183 0.000005 -0.614962
v -0.788183 0.000005 -0.422841
v -0.211818 0.094977 -0.614962
v -0.211818 0.094977 -0.422841
v -0.403939 0.000005 -0.807084
v -0.596061 0.000005 -0.807084
v -0.403939 0.094977 -0.230719
v -0.596061 0.094977 -0.230719
v -0.596061 0.094977 -0.807084
v -0.403939 0.094977 -0.807084
v -0.596061 0.000005 -0.230719
v -0.403939 0.000005 -0.230719
v -0.403939 0.000005 -0.614962
v -0.596061 0.000005 -0.614962
v -0.403939 0.000005 -0.422841
v -0.596061 0.000005 -0.422841
v -0.403939 0.165926 -0.422841
v -0.596061 0.165926 -0.422841
v -0.403939 0.165926 -0.614962
v -0.596061 0.165926 -0.614962
v -0.596061 0.000005 -0.326780
v -0.403939 0.000005 -0.326780
v -0.596061 0.165926 -0.326780
v -0.403939 0.165926 -0.326780
v -0.788183 0.094977 -0.326780
v -0.211818 0.000005 -0.326780
v -0.211818 0.094977 -0.326780
v -0.788183 0.000005 -0.326780
v -0.307878 0.165926 -0.711023
v -0.307878 0.000005 -0.711023
v -0.692122 0.000005 -0.711023
v -0.692122 0.165926 -0.711023
v -0.596061 0.165926 -0.711023
v -0.403939 0.165926 -0.711023
v -0.596061 0.000005 -0.711023
v -0.403939 0.000005 -0.711023
v -0.211818 0.094977 -0.711023
v -0.788183 0.000005 -0.711023
v -0.788183 0.094977 -0.711023
v -0.211818 0.000005 -0.711023
v -0.692122 0.000005 -0.230719
v -0.692122 0.094977 -0.807084
v -0.692122 0.165926 -0.614962
v -0.692122 0.165926 -0.422841
v -0.692122 0.000005 -0.422841
v -0.692122 0.000005 -0.614962
v -0.692122 0.094977 -0.230719
v -0.692122 0.000005 -0.807084
v -0.307878 0.165926 -0.614962
v -0.307878 0.165926 -0.422841
v -0.307878 0.000005 -0.422841
v -0.307878 0.000005 -0.614962
v -0.307878 0.094977 -0.230719
v -0.307878 0.000005 -0.807084
v -0.307878 0.000005 -0.230719
v -0.307878 0.094977 -0.807084
v -0.692122 0.000005 -0.326780
v -0.692122 0.165926 -0.326780
v -0.307878 0.165926 -0.326780
v -0.307878 0.000005 -0.326780
v -0.419776 0.313541 -0.478789
v -0.459888 0.313541 -0.478789
v -0.419776 0.313541 -0.559014
v -0.459888 0.313541 -0.559014
v -0.459888 0.313541 -0.599126
v -0.540112 0.313541 -0.599126
v -0.540112 0.313541 -0.559014
v -0.540112 0.313541 -0.438677
v -0.580225 0.313541 -0.438677
v -0.419776 0.313541 -0.438677
v -0.580225 0.313541 -0.478789
v -0.540112 0.313541 -0.478789
v -0.459888 0.313541 -0.438677
v -0.419776 0.313541 -0.599126
v -0.580225 0.313541 -0.599126
v -0.580225 0.313541 -0.559014
v -0.419776 0.530258 -0.478789
v -0.459888 0.530258 -0.478789
v -0.419776 0.530258 -0.559014
v -0.459888 0.530258 -0.559014
v -0.459888 0.530258 -0.599126
v -0.540112 0.530258 -0.599126
v -0.540112 0.530258 -0.559014
v -0.540112 0.530258 -0.438677
v -0.580225 0.530258 -0.438677
v -0.419776 0.530258 -0.438677
v -0.580225 0.530258 -0.478789
v -0.540112 0.530258 -0.478789
v -0.459888 0.530258 -0.438677
v -0.419776 0.530258 -0.599126
v -0.580225 0.530258 -0.599126
v -0.580225 0.530258 -0.559014
v -0.419776 0.537865 -0.478789
v -0.459888 0.537865 -0.478789
v -0.419776 0.537865 -0.559014
v -0.459888 0.537865 -0.559014
v -0.459888 0.537865 -0.599126
v -0.540112 0.537865 -0.599126
v -0.540112 0.537865 -0.559014
v -0.540112 0.537865 -0.438677
v -0.580225 0.537865 -0.438677
v -0.419776 0.537865 -0.438677
v -0.580225 0.537865 -0.478789
v -0.540112 0.537865 -0.478789
v -0.459888 0.537865 -0.438677
v -0.419776 0.537865 -0.599126
v -0.580225 0.537865 -0.599126
v -0.580225 0.537865 -0.559014
v -0.419776 0.537865 -0.478789
v -0.459888 0.537865 -0.478789
v -0.419776 0.537865 -0.438677
v -0.459888 0.537865 -0.438677
v -0.419776 0.530258 -0.559014
v -0.459888 0.530258 -0.559014
v -0.419776 0.537865 -0.559014
v -0.459888 0.537865 -0.559014
v -0.419776 0.530258 -0.559014
v -0.459888 0.530258 -0.559014
v -0.419776 0.537865 -0.559014
v -0.459888 0.537865 -0.559014
v -0.419776 0.530258 -0.559014
v -0.459888 0.530258 -0.559014
v -0.419776 0.537865 -0.559014
v -0.459888 0.537865 -0.559014
v -0.459888 0.530258 -0.478789
v -0.459888 0.530258 -0.438677
v -0.459888 0.537865 -0.478789
v -0.459888 0.537865 -0.438677
v -0.459888 0.530258 -0.478789
v -0.459888 0.530258 -0.438677
v -0.459888 0.537865 -0.478789
v -0.459888 0.537865 -0.438677
v -0.540112 0.530258 -0.478789
v -0.540112 0.530258 -0.438677
v -0.540112 0.537865 -0.478789
v -0.540112 0.537865 -0.438677
v -0.540112 0.530258 -0.559014
v -0.580225 0.530258 -0.559014
v -0.540112 0.537865 -0.559014
v -0.580225 0.537865 -0.559014
v -0.459888 0.530258 -0.599126
v -0.459888 0.530258 -0.559014
v -0.459888 0.537865 -0.599126
v -0.459888 0.537865 -0.559014
v -0.419776 0.530258 -0.478789
v -0.459888 0.530258 -0.478789
v -0.419776 0.537865 -0.478789
v -0.459888 0.537865 -0.478789
v -0.539641 0.537865 -0.559014
v -0.539641 0.530258 -0.559014
v -0.539641 0.537865 -0.478789
v -0.539641 0.530258 -0.478789
v -0.459888 0.960905 -0.478789
v -0.459888 0.960905 -0.559014
v -0.539641 0.960905 -0.478789
v -0.539641 0.960905 -0.559014
v -0.362972 0.883207 -0.381301
v -0.636556 0.883207 -0.381301
v -0.636556 0.883207 -0.656501
v -0.362972 0.883207 -0.656501
vt 0.833333 0.708333
vt 0.875000 0.708333
vt 0.875000 0.750000
vt 0.833333 0.750000
vt 0.375000 0.958333
vt 0.625000 0.958333
vt 0.625000 1.000000
vt 0.375000 1.000000
vt 0.375000 0.208333
vt 0.625000 0.208333
vt 0.625000 0.250000
vt 0.375000 0.250000
vt 0.333333 0.708333
vt 0.375000 0.708333
vt 0.375000 0.750000
vt 0.333333 0.750000
vt 0.625000 0.708333
vt 0.625000 0.750000
vt 0.375000 0.458333
vt 0.625000 0.458333
vt 0.625000 0.500000
vt 0.375000 0.500000
vt 0.375000 0.291667
vt 0.625000 0.291667
vt 0.625000 0.333333
vt 0.375000 0.333333
vt 0.166667 0.708333
vt 0.208333 0.708333
vt 0.208333 0.750000
vt 0.166667 0.750000
vt 0.625000 0.416667
vt 0.375000 0.416667
vt 0.375000 0.791667
vt 0.625000 0.791667
vt 0.625000 0.833333
vt 0.375000 0.833333
vt 0.291667 0.708333
vt 0.291667 0.750000
vt 0.666667 0.708333
vt 0.708333 0.708333
vt 0.708333 0.750000
vt 0.666667 0.750000
vt 0.625000 0.916667
vt 0.375000 0.916667
vt 0.791667 0.708333
vt 0.791667 0.750000
vt 0.666667 0.708333
vt 0.708333 0.708333
vt 0.208333 0.541667
vt 0.291667 0.541667
vt 0.291667 0.583333
vt 0.208333 0.583333
vt 0.708333 0.541667
vt 0.791667 0.541667
vt 0.791667 0.583333
vt 0.708333 0.583333
vt 0.291667 0.666667
vt 0.208333 0.666667
vt 0.166667 0.541667
vt 0.166667 0.583333
vt 0.375000 0.583333
vt 0.625000 0.583333
vt 0.625000 0.666667
vt 0.375000 0.666667
vt 0.375000 0.541667
vt 0.625000 0.541667
vt 0.333333 0.583333
vt 0.333333 0.666667
vt 0.333333 0.541667
vt 0.375000 0.083333
vt 0.625000 0.083333
vt 0.625000 0.166667
vt 0.375000 0.166667
vt 0.375000 0.041667
vt 0.625000 0.041667
vt 0.833333 0.583333
vt 0.875000 0.583333
vt 0.875000 0.666667
vt 0.833333 0.666667
vt 0.833333 0.541667
vt 0.875000 0.541667
vt 0.166667 0.666667
vt 0.666667 0.583333
vt 0.708333 0.666667
vt 0.666667 0.666667
vt 0.791667 0.666667
vt 0.666667 0.500000
vt 0.666667 0.541667
vt 0.125000 0.541667
vt 0.125000 0.583333
vt 0.125000 0.666667
vt 0.791667 0.666667
vt 0.791667 0.708333
vt 0.125000 0.708333
vt 0.125000 0.750000
vt 0.166667 0.500000
vt 0.208333 0.500000
vt 0.291667 0.500000
vt 0.333333 0.500000
vt 0.708333 0.500000
vt 0.375000 0.000000
vt 0.625000 0.000000
vt 0.833333 0.500000
vt 0.875000 0.500000
vt 0.791667 0.500000
vt 0.833333 0.666667
vt 0.708333 0.541667
vt 0.666667 0.541667
vt 0.125000 0.500000
vt 0.666667 0.666667
vt 0.666667 0.666667
vt 0.666667 0.708333
vt 0.833333 0.708333
vt 0.791667 0.708333
vt 0.833333 0.708333
vt 0.833333 0.666667
vt 0.791667 0.666667
vt 0.708333 0.666667
vt 0.708333 0.583333
vt 0.833333 0.583333
vt 0.833333 0.541667
vt 0.791667 0.541667
vt 0.791667 0.583333
vt 0.666667 0.583333
vt 0.791667 0.583333
vt 0.791667 0.541667
vt 0.791667 0.541667
vt 0.791667 0.583333
vt 0.666667 0.583333
vt 0.708333 0.583333
vt 0.708333 0.583333
vt 0.666667 0.583333
vt 0.666667 0.583333
vt 0.666667 0.541667
vt 0.666667 0.541667
vt 0.708333 0.541667
vt 0.708333 0.583333
vt 0.708333 0.541667
vt 0.708333 0.708333
vt 0.708333 0.666667
vt 0.833333 0.541667
vt 0.833333 0.583333
vt 0.708333 0.541667
vt 0.666667 0.541667
vt 0.791667 0.666667
vt 0.833333 0.666667
vt 0.833333 0.708333
vt 0.791667 0.708333
vt 0.791667 0.541667
vt 0.833333 0.541667
vt 0.833333 0.583333
vt 0.791667 0.583333
vt 0.666667 0.666667
vt 0.708333 0.666667
vt 0.708333 0.708333
vt 0.666667 0.708333
vt 0.833333 0.666667
vt 0.791667 0.666667
vt 0.708333 0.708333
vt 0.708333 0.708333
vt 0.708333 0.583333
vt 0.666667 0.583333
vt 0.791667 0.541667
vt 0.791667 0.583333
vt 0.791667 0.583333
vt 0.791667 0.541667
vt 0.791667 0.541667
vt 0.791667 0.541667
vt 0.791667 0.541667
vt 0.791667 0.583333
vt 0.791667 0.583333
vt 0.791667 0.583333
vt 0.791667 0.583333
vt 0.791667 0.583333
vt 0.791667 0.583333
vt 0.791667 0.583333
vt 0.708333 0.583333
vt 0.708333 0.583333
vt 0.708333 0.583333
vt 0.666667 0.583333
vt 0.708333 0.583333
vt 0.708333 0.583333
vt 0.666667 0.583333
vt 0.666667 0.583333
vt 0.666667 0.583333
vt 0.666667 0.583333
vt 0.708333 0.666667
vt 0.708333 0.666667
vt 0.833333 0.666667
vt 0.791667 0.666667
vt 0.791667 0.541667
vt 0.791667 0.541667
vt 0.791667 0.583333
vt 0.791667 0.583333
vt 0.791667 0.583333
vt 0.791667 0.583333
vt 0.791667 0.583333
vt 0.791667 0.583333
vt 0.791667 0.583333
vt 0.791667 0.583333
vt 0.791667 0.583333
vt 0.791667 0.583333
vn -0.3273 0.8864 -0.3273
vn -1.0000 0.0000 0.0000
vn 0.0000 0.0000 -1.0000
vn 0.0000 -1.0000 0.0000
vn 0.0000 0.0000 1.0000
vn 1.0000 0.0000 0.0000
vn -0.5941 0.8044 -0.0000
vn -0.7969 0.6041 -0.0000
vn 0.0000 1.0000 0.0000
vn 0.0000 0.8044 -0.5941
vn -0.3273 0.8864 0.3273
vn 0.3273 0.8864 0.3273
vn 0.0000 0.8044 0.5941
vn 0.0000 -0.3544 0.9351
vn 0.5941 0.8044 0.0000
vn 0.3273 0.8864 -0.3273
vn 0.9351 -0.3544 0.0000
vn 0.7969 0.6041 0.0000
vn 0.0000 -0.3544 -0.9351
vn 0.0000 0.6041 -0.7969
vn -0.0000 0.6041 0.7969
vn -0.9351 -0.3544 -0.0000
vn 0.0000 0.7820 0.6233
vn 0.0000 0.7820 -0.6233
vn -0.6255 0.7802 0.0000
vn 0.6255 0.7802 -0.0000
vn 0.9628 -0.2702 0.0000
vn -0.9628 -0.2702 0.0000
vn 0.0000 -0.2717 -0.9624
vn 0.0000 -0.2717 0.9624
usemtl Material.001
s off
f 44/1/1 54/2/1 7/3/1 51/4/1
f 50/5/2 51/6/2 7/7/2 8/8/2
f 66/9/3 68/10/3 5/11/3 6/12/3
f 69/13/4 53/14/4 4/15/4 40/16/4
f 53/14/5 59/17/5 3/18/5 4/15/5
f 38/19/6 39/20/6 1/21/6 2/22/6
f 52/23/6 49/24/6 15/25/6 10/26/6
f 43/27/4 58/28/4 13/29/4 50/30/4
f 10/26/6 15/25/6 16/31/6 9/32/6
f 40/33/2 37/34/2 11/35/2 14/36/2
f 58/28/4 57/37/4 14/38/4 13/29/4
f 70/39/7 56/40/7 11/41/7 37/42/7
f 14/36/2 11/35/2 12/43/2 13/44/2
f 56/40/7 55/45/7 12/46/7 11/41/7
f 56/40/8 70/39/8 81/47/8 83/48/8
f 64/49/4 63/50/4 27/51/4 25/52/4
f 62/53/9 61/54/9 31/55/9 29/56/9
f 25/52/4 27/51/4 28/57/4 26/58/4
f 42/59/4 64/49/4 25/52/4 48/60/4
f 24/61/5 19/62/5 20/63/5 23/64/5
f 67/65/5 65/66/5 19/62/5 24/61/5
f 34/67/4 24/61/4 23/64/4 33/68/4
f 72/69/4 67/65/4 24/61/4 34/67/4
f 18/70/3 21/71/3 22/72/3 17/73/3
f 60/74/3 54/75/3 21/71/3 18/70/3
f 46/76/10 22/77/10 21/78/10 45/79/10
f 41/80/10 68/81/10 22/77/10 46/76/10
f 48/60/4 25/52/4 26/58/4 47/82/4
f 27/51/4 34/67/4 33/68/4 28/57/4
f 36/83/9 29/56/9 30/84/9 35/85/9
f 59/17/11 70/39/11 37/42/11 3/18/11
f 31/55/9 46/76/9 45/79/9 32/86/9
f 1/21/12 39/87/12 71/88/12 65/66/12
f 63/50/4 72/69/4 34/67/4 27/51/4
f 28/57/4 33/68/4 69/13/4 57/37/4
f 66/89/4 42/59/4 48/60/4 17/90/4
f 13/44/2 12/43/2 51/6/2 50/5/2
f 19/62/13 36/83/13 35/85/13 20/63/13
f 17/90/4 48/60/4 47/82/4 18/91/4
f 17/73/3 22/72/3 68/10/3 66/9/3
f 55/45/14 32/86/14 79/92/14 88/93/14
f 55/45/7 44/1/7 51/4/7 12/46/7
f 26/58/4 28/57/4 57/37/4 58/28/4
f 60/94/4 43/27/4 50/30/4 8/95/4
f 32/86/9 30/84/9 29/56/9 31/55/9
f 30/84/9 32/86/9 55/45/9 56/40/9
f 52/96/4 10/97/4 64/49/4 42/59/4
f 10/97/4 9/98/4 63/50/4 64/49/4
f 9/98/4 38/99/4 72/69/4 63/50/4
f 45/79/10 21/78/10 54/2/10 44/1/10
f 39/87/15 16/100/15 62/53/15 71/88/15
f 8/101/3 7/102/3 54/75/3 60/74/3
f 49/103/16 5/104/16 68/81/16 41/80/16
f 15/105/15 49/103/15 41/80/15 61/54/15
f 33/68/4 23/64/4 53/14/4 69/13/4
f 32/86/17 45/79/17 78/106/17 79/92/17
f 23/64/5 20/63/5 59/17/5 53/14/5
f 6/12/6 5/11/6 49/24/6 52/23/6
f 38/99/4 2/22/4 67/65/4 72/69/4
f 2/22/5 1/21/5 65/66/5 67/65/5
f 16/100/15 15/105/15 61/54/15 62/53/15
f 71/88/18 62/53/18 73/107/18 82/108/18
f 6/109/4 52/96/4 42/59/4 66/89/4
f 18/91/4 47/82/4 43/27/4 60/94/4
f 20/63/13 35/85/13 70/39/13 59/17/13
f 47/82/4 26/58/4 58/28/4 43/27/4
f 65/66/13 71/88/13 36/83/13 19/62/13
f 4/15/2 3/18/2 37/34/2 40/33/2
f 9/32/6 16/31/6 39/20/6 38/19/6
f 57/37/4 69/13/4 40/16/4 14/38/4
f 81/47/5 80/110/5 96/111/5 97/112/5
f 87/113/2 88/93/2 104/114/2 103/115/2
f 79/92/6 78/106/6 94/116/6 95/117/6
f 78/106/3 87/113/3 103/115/3 94/116/3
f 30/84/19 56/40/19 83/48/19 84/118/19
f 62/53/19 29/56/19 74/119/19 73/107/19
f 41/80/20 46/76/20 77/120/20 86/121/20
f 31/55/14 61/54/14 75/122/14 76/123/14
f 36/83/21 71/88/21 82/108/21 85/124/21
f 35/85/17 30/84/17 84/118/17 80/110/17
f 45/79/20 44/1/20 87/113/20 78/106/20
f 44/1/8 55/45/8 88/93/8 87/113/8
f 70/39/21 35/85/21 80/110/21 81/47/21
f 29/56/22 36/83/22 85/124/22 74/119/22
f 61/54/18 41/80/18 86/121/18 75/122/18
f 46/76/22 31/55/22 76/123/22 77/120/22
f 92/125/5 91/126/5 125/127/5 126/128/5
f 117/129/5 106/130/5 139/131/5 140/132/5
f 101/133/5 98/134/5 114/135/5 117/129/5
f 89/136/3 90/137/3 106/130/3 105/138/3
f 88/93/5 79/92/5 95/117/5 104/114/5
f 82/108/6 73/107/6 89/136/6 98/134/6
f 84/118/3 83/48/3 99/139/3 100/140/3
f 83/48/2 81/47/2 97/112/2 99/139/2
f 75/122/6 86/121/6 102/141/6 91/126/6
f 80/110/6 84/118/6 100/140/6 96/111/6
f 73/107/3 74/119/3 90/137/3 89/136/3
f 85/124/5 82/108/5 98/134/5 101/133/5
f 74/119/2 85/124/2 101/133/2 90/137/2
f 76/123/5 75/122/5 91/126/5 92/125/5
f 86/121/3 77/120/3 93/142/3 102/141/3
f 77/120/2 76/123/2 92/125/2 93/142/2
f 114/135/5 105/138/5 121/143/5 123/144/5
f 111/145/9 110/146/9 119/147/9 120/148/9
f 107/149/9 118/150/9 109/151/9 108/152/9
f 112/153/9 116/154/9 115/155/9 113/156/9
f 102/141/3 93/142/3 109/151/3 118/150/3
f 93/142/2 92/125/2 108/152/2 109/151/2
f 94/116/3 103/115/3 119/147/3 110/146/3
f 95/117/4 94/116/4 153/157/4 154/158/4
f 103/115/2 104/114/2 120/148/2 119/147/2
f 97/112/5 96/111/5 112/153/5 113/156/5
f 104/114/5 95/117/5 111/145/5 120/148/5
f 98/134/6 89/136/6 105/138/6 114/135/6
f 99/139/2 115/155/2 152/159/2 150/160/2
f 99/139/2 97/112/2 113/156/2 115/155/2
f 91/126/6 102/141/6 118/150/6 107/149/6
f 96/111/6 100/140/6 116/154/6 112/153/6
f 123/144/9 121/143/9 122/161/9 124/162/9
f 106/130/5 117/129/5 124/162/5 122/161/5
f 117/129/5 114/135/5 123/144/5 124/162/5
f 105/138/5 106/130/5 122/161/5 121/143/5
f 127/163/5 128/164/5 132/165/5 131/166/5
f 91/126/5 107/149/5 127/163/5 125/127/5
f 107/149/5 108/152/5 128/164/5 127/163/5
f 108/152/5 92/125/5 126/128/5 128/164/5
f 129/167/5 131/166/5 135/168/5 133/169/5
f 125/127/5 127/163/5 131/166/5 129/167/5
f 126/128/5 125/127/5 129/167/5 130/170/5
f 128/164/5 126/128/5 130/170/5 132/165/5
f 158/171/5 160/172/5 163/173/5 164/174/5
f 130/170/5 129/167/5 133/169/5 134/175/5
f 132/165/5 130/170/5 134/175/5 136/176/5
f 131/166/5 132/165/5 136/176/5 135/168/5
f 139/131/5 137/177/5 141/178/5 143/179/5
f 101/133/5 117/129/5 140/132/5 138/180/5
f 90/137/5 101/133/5 138/180/5 137/177/5
f 106/130/5 90/137/5 137/177/5 139/131/5
f 143/179/3 141/178/3 145/181/3 147/182/3
f 137/177/5 138/180/5 142/183/5 141/178/5
f 138/180/5 140/132/5 144/184/5 142/183/5
f 140/132/5 139/131/5 143/179/5 144/184/5
f 145/181/2 146/185/2 148/186/2 147/182/2
f 141/178/4 142/183/4 146/185/4 145/181/4
f 142/183/5 144/184/5 148/186/5 146/185/5
f 144/184/9 143/179/9 147/182/9 148/186/9
f 149/187/3 150/160/3 152/159/3 151/188/3
f 115/155/9 116/154/9 151/188/9 152/159/9
f 116/154/6 100/140/6 149/187/6 151/188/6
f 100/140/4 99/139/4 150/160/4 149/187/4
f 154/158/6 153/157/6 155/189/6 156/190/6
f 111/145/5 95/117/5 154/158/5 156/190/5
f 110/146/9 111/145/9 156/190/9 155/189/9
f 94/116/3 110/146/3 155/189/3 153/157/3
f 158/171/5 157/191/5 159/192/5 160/172/5
f 135/168/9 136/176/9 160/172/9 159/192/9
f 133/169/6 135/168/6 159/192/6 157/191/6
f 134/175/4 133/169/4 157/191/4 158/171/4
f 161/193/2 162/194/2 164/174/2 163/173/2
f 136/176/3 134/175/3 162/194/3 161/193/3
f 134/175/4 158/171/4 164/174/4 162/194/4
f 170/195/23 169/196/23 165/197/23 167/198/23
f 165/197/9 166/199/9 168/200/9 167/198/9
f 172/201/24 171/202/24 168/200/24 166/199/24
f 171/202/25 170/195/25 167/198/25 168/200/25
f 169/196/26 172/201/26 166/199/26 165/197/26
f 160/172/27 136/176/27 172/201/27 169/196/27
f 161/193/28 163/173/28 170/195/28 171/202/28
f 136/176/29 161/193/29 171/202/29 172/201/29
f 163/173/30 160/172/30 169/196/30 170/195/30
